<?xml version="1.0" encoding="utf-8"?>
<!-- Generator: Adobe Illustrator 19.2.1, SVG Export Plug-In . SVG Version: 6.00 Build 0)  -->
<svg version="1.1" id="layer" xmlns="http://www.w3.org/2000/svg" xmlns:xlink="http://www.w3.org/1999/xlink" x="0px" y="0px"
	 viewBox="0 0 652 652" style="enable-background:new 0 0 652 652;" xml:space="preserve">
<g>
	<path d="M96.9,350.7H47.3L34.5,381H21v-0.3c1.1-1.4,4.5-6.1,8.7-15.9l36.7-85.4l-1.7-4c-2.6-6.5-5-10.4-7.3-12.6v-0.3h20.5
		l44,102.5c4.2,9.6,7,14.3,8.2,15.7v0.3h-20.4L96.9,350.7z M93,341.6l-21.1-49.3l-20.7,49.3H93z"/>
	<path d="M186.6,320.3c9.3-3.6,15.9-12.3,15.9-26.1c0-16.5-12-24.1-26.1-24.1h-14.8V381h-21.5v-0.3c1.1-2,3.6-6.4,3.6-16.3v-85.2
		c0-10-2.5-14.3-3.6-16.3v-0.3h43.5c16.9,0,37.5,8.1,37.5,30.5c0,20.8-15.7,29.9-31.6,31.6l30.5,42.8c5,7,10.6,11.8,12.6,13.4v0.3
		h-23.5L167,321.1l15.4-6.7L186.6,320.3z"/>
	<path d="M269.1,380.7v0.3h-25v-0.3c1.1-2,3.6-6.4,3.6-16.3v-85.2c0-10-2.5-14.3-3.6-16.3v-0.3h25v0.3c-1.1,2-3.6,6.4-3.6,16.3v85.2
		C265.6,374.3,268.1,378.7,269.1,380.7z"/>
	<path d="M340.5,380.7v0.3h-25v-0.3c1.1-2,3.6-6.4,3.6-16.3v-94.2c-14.9,1.9-30.6,6.8-35.8,10.1l2.3-17.7h84.7l2.3,17.7
		c-5-3.3-20.7-8.2-35.8-10.1v94.2C336.9,374.3,339.4,378.7,340.5,380.7z"/>
	<path d="M460.5,381h-85.8v-0.3l62.7-110.1c-22.2,1.1-37.8,3.3-51.9,9.6l2.3-17.7h74v0.3l-62.7,110.2c25.5-0.8,47.7-2.5,63.8-9.8
		L460.5,381z"/>
	<path d="M502.1,380.7v0.3h-25v-0.3c1.1-2,3.6-6.4,3.6-16.3v-85.2c0-10-2.5-14.3-3.6-16.3v-0.3h25v0.3c-1.1,2-3.6,6.4-3.6,16.3v85.2
		C498.5,374.3,501,378.7,502.1,380.7z"/>
	<path d="M587.7,350.7h-49.6L525.4,381h-13.5v-0.3c1.1-1.4,4.5-6.1,8.7-15.9l36.7-85.4l-1.7-4c-2.6-6.5-5-10.4-7.3-12.6v-0.3h20.5
		l44,102.5c4.2,9.6,7,14.3,8.2,15.7v0.3h-20.4L587.7,350.7z M583.8,341.6l-21.1-49.3L542,341.6H583.8z"/>
</g>
</svg>
