<svg id="Layer_1" enable-background="new 0 0 512 512" height="512" viewBox="0 0 512 512" width="512" xmlns="http://www.w3.org/2000/svg"><g><g id="XMLID_70_"><g id="XMLID_71_"><g id="XMLID_72_"><g id="XMLID_73_"><g id="XMLID_74_"><g id="XMLID_75_"><g id="XMLID_76_"><g id="XMLID_77_"><g id="XMLID_78_"><g id="XMLID_79_"><g id="XMLID_80_"><g id="XMLID_81_"><g id="XMLID_83_"><g id="XMLID_84_"><circle id="XMLID_93_" cx="256" cy="256" fill="#72f4c3" r="256"/></g></g></g></g></g></g></g></g></g></g></g></g></g></g><path d="m511.955 259.523-184.893-184.893s-93.062-40.63-131.062 28.37-62.717 312.551-62.717 312.551l94.736 94.921c9.191.999 18.524 1.528 27.981 1.528 140.207 0 254.067-112.718 255.955-252.477z" fill="#50d8a1"/><g><g><path d="m343.618 221.372-31.437-101.143c-7.69-24.746-30.268-41.372-56.181-41.372s-48.49 16.626-56.181 41.37l-31.436 101.143-34.534-10.733 31.436-101.143c6.059-19.493 17.949-36.195 34.387-48.299 16.437-12.103 35.915-18.501 56.328-18.501s39.892 6.398 56.328 18.502c16.437 12.104 28.327 28.806 34.386 48.299l31.436 101.143z" fill="#5a6c75"/></g><g><g><path d="m378.15 210.64-34.53 10.73-9.42-30.3-22.02-70.84c-7.69-24.75-30.27-41.37-56.18-41.37v-36.17c20.41 0 39.89 6.4 56.33 18.51 16.44 12.1 28.33 28.8 34.39 48.29l25.35 81.58z" fill="#3b4d5b"/></g></g><path d="m431.867 273.595s-28.481 29.228-32.247 44.465c-3.766 15.238 9.113 45.426 9.113 45.426-7.729 18.867-17.544 36.752-30.016 52.065-15.756 19.352-39.511 30.449-64.484 30.449h-116.466c-24.973 0-48.727-11.097-64.484-30.449-12.471-15.313-22.287-33.198-30.015-52.065 0 0 14.946-30.189 11.18-45.426-3.766-15.238-34.314-44.465-34.314-44.465-6.54-46.175-5.156-82.524-5.156-82.524h362.045c0-.001 1.384 36.348-5.156 82.524z" fill="#ff3d7d"/><path d="m399.62 318.06c-3.77 15.24 9.11 45.43 9.11 45.43-7.73 18.86-17.54 36.75-30.01 52.06-15.76 19.35-39.51 30.45-64.49 30.45h-58.23v-254.93h181.02s1.39 36.35-5.15 82.52c0 0-28.48 29.23-32.25 44.47z" fill="#ea1c81"/><path d="m431.867 273.595c-4.009 28.3-11.004 60.31-23.134 89.891h-305.466c-12.13-29.582-19.125-61.591-23.134-89.891z" fill="#fddd45"/><path d="m431.87 273.59c-4.01 28.3-11.01 60.31-23.14 89.9h-152.73v-89.9z" fill="#ffca45"/></g></g></svg>