<svg id="Capa_1" enable-background="new 0 0 512 512" height="512" viewBox="0 0 512 512" width="512" xmlns="http://www.w3.org/2000/svg"><g><g><g><g><g><g><g><circle cx="256" cy="256" fill="#ffce00" r="256"/></g></g></g></g></g></g><path d="m512 256c0-5.362-.165-10.686-.49-15.967l-125.54-125.54-9.247 25.97-83.148-83.148-145.397 347.275 25.285 25.285-18.133 9.074 71.395 71.394c9.607 1.095 19.375 1.657 29.275 1.657 141.385 0 256-114.615 256-256z" fill="#ffa300"/><g><path d="m356.669 438.95h-70.904l-29.644-3.95-29.886 3.95h-70.904v-31.928h201.338z" fill="#414952"/></g><g><path d="m356.669 407.022h-100.548v26.65l29.644 5.278h70.904z" fill="#23272b"/></g><g><path d="m226.235 407.022h59.529v31.928h-59.529z" fill="#d72878"/></g><g><path d="m285.765 407.022-29.765-.095v32.023h29.765z" fill="#be1964"/></g><g><path d="m336.974 412.768h-67.395l-13.579-2.01-10.101 2.01h-73.43c-21.745 0-39.55-17.287-40.193-39.022l-6.246-259.253 88.133-27.289h80.733l91.073 27.289-8.817 259.648c-.849 21.575-18.587 38.627-40.178 38.627z" fill="#ff73a5"/></g><g><path d="m294.897 87.204h-38.777v324.259l11.459 1.305h69.395c21.591 0 39.329-17.052 40.179-38.626l8.817-259.648z" fill="#ff468c"/></g><g><path d="m231.826 342.119-29.144 30.887-21.981-20.923 29.144-30.887z" fill="#555a66"/></g><g><path d="m126.03 114.493-52.131 115.218c-6.899 15.248-3.389 33.191 8.746 44.716l82.17 78.039c7.794 7.402 20.147 6.962 27.394-.976l15.909-17.424c6.745-7.387 6.686-18.716-.136-26.033l-73.497-80.44z" fill="#ff468c"/></g><g><path d="m280.174 342.119 29.144 30.887 21.981-20.923-29.144-30.887z" fill="#333940"/></g><g><path d="m385.97 114.493 52.131 115.218c6.899 15.248 3.389 33.191-8.746 44.716l-82.17 78.039c-7.794 7.402-20.147 6.962-27.394-.976l-15.909-17.424c-6.745-7.387-6.686-18.716.136-26.033l73.497-80.44z" fill="#d72878"/></g><g><path d="m244.16 126.641h23.68v286.127h-23.68z" fill="#ff468c"/></g><path d="m256 126.641h11.84v286.127h-11.84z" fill="#d72878"/><g><path d="m305.086 90.328-49.086 43.873-49.086-43.873 11.511-33.013h75.15z" fill="#636978"/></g><g><path d="m293.575 57.314h-37.454l-.121 76.887 49.086-43.873z" fill="#414952"/></g><g><path d="m218.425 57.315 37.575 76.886c-16.207 0-31.061-9.039-38.509-23.433l-10.576-20.44z" fill="#414952"/></g><g><path d="m293.575 57.315-37.575 76.886c16.207 0 31.061-9.039 38.509-23.433l10.576-20.44z" fill="#23272b"/></g><g><circle cx="331.299" cy="179.269" fill="#be1964" r="27.692"/></g></g></svg>