<svg id="Layer_1" enable-background="new 0 0 512 512" height="512" viewBox="0 0 512 512" width="512" xmlns="http://www.w3.org/2000/svg"><g><g id="XMLID_98_"><g id="XMLID_99_"><g id="XMLID_100_"><g id="XMLID_101_"><g id="XMLID_102_"><g id="XMLID_103_"><g id="XMLID_104_"><g id="XMLID_105_"><g id="XMLID_106_"><g id="XMLID_107_"><g id="XMLID_108_"><g id="XMLID_109_"><g id="XMLID_110_"><g id="XMLID_111_"><circle id="XMLID_112_" cx="256" cy="256" fill="#ffe67b" r="256"/></g></g></g></g></g></g></g></g></g></g></g></g></g></g><path d="m512 256c0-20.767-2.491-40.95-7.158-60.284l-156.497-156.496-27.881 71.066c-3.581-.72-33.952-3.637-42.214 1.714l-75.782-72.78-11.468 17.113s-25.597 338.666-76.132 386l54.689 54.688c27.005 9.688 56.104 14.979 86.443 14.979 141.385 0 256-114.615 256-256z" fill="#ffca45"/><g><path d="m348.345 179.14-92.345-12.66-92.346 12.66-48.786 263.193h282.264z" fill="#2ebeef"/><path d="m397.13 442.33h-141.13v-275.85l92.35 12.66z" fill="#4793ff"/><path d="m307.297 179.14-51.297-12.66-51.297 12.66-27.101 263.193h156.796z" fill="#7be2f6"/><path d="m334.4 442.33h-78.4v-275.85l51.3 12.66z" fill="#2ebeef"/><path d="m309.532 39.22v60.133c-3.581-.72-7.302-1.113-11.13-1.113-17.895 0-33.583 8.316-42.402 20.804-8.819-12.488-24.507-20.804-42.402-20.804-3.827 0-7.549.393-11.13 1.113v-60.133h-38.814v139.92h184.691v-139.92z" fill="#f2f2fc"/><path d="m348.35 39.22v139.92h-92.35v-60.1c8.82-12.48 24.51-20.8 42.4-20.8 3.83 0 7.55.39 11.13 1.11v-60.13z" fill="#d8e9fe"/></g></g></svg>