<svg id="Layer_1" enable-background="new 0 0 512 512" height="512" viewBox="0 0 512 512" width="512" xmlns="http://www.w3.org/2000/svg"><g><g id="XMLID_449_"><g><g id="XMLID_1054_"><g id="XMLID_1055_"><g id="XMLID_1056_"><g id="XMLID_1057_"><g id="XMLID_1058_"><g id="XMLID_1059_"><g id="XMLID_1060_"><g id="XMLID_1061_"><g id="XMLID_1062_"><g id="XMLID_1063_"><g id="XMLID_1064_"><g id="XMLID_1067_"><g id="XMLID_1069_"><g id="XMLID_1086_"><circle cx="256" cy="256" fill="#ff3d7d" r="256"/></g></g></g></g></g></g></g></g></g></g></g></g></g></g></g></g><path d="m512 256c0-23.145-3.09-45.564-8.847-66.889l-81.401-81.401-114.284 82.662-89.589-89.353-98.717 315.84 91.051 91.051c14.857 2.684 30.157 4.09 45.787 4.09 141.385 0 256-114.615 256-256z" fill="#d01273"/><g><g><path d="m238.76 189.55c-.06 1.565-26.046 24.118-26.081 24.752-1.02 18.742 19.419 58.64 19.419 58.64-8.254 68.61-7.481 157.737-68.596 159.787-61.114 2.049-83.503-71.988-96.113-149.768 0 0 5.983-62.411 6.264-70.482.047-1.391-6.983-57.926-1.536-73.087 16.086-44.78 49.174-58.386 87.654-60.054 38.854-1.681 63.431 16.029 73.695 52.611 4.415 15.73 6.173 34.941 5.294 57.601z" fill="#ffe67b"/><path d="m238.76 189.55c-.03.79-6.54 6.81-13.05 12.73-6.51 5.91-13.01 11.7-13.03 12.02-1.02 18.74 19.42 58.64 19.42 58.64-8.26 68.61-7.48 157.74-68.6 159.79-4.47.15-8.73-.11-12.79-.75v-352c2.98-.3 6-.51 9.06-.64 38.86-1.68 63.43 16.03 73.7 52.61 4.41 15.73 6.17 34.94 5.29 57.6z" fill="#ffca45"/><path d="m238.76 189.55c-.06 1.565-.128 3.151-.215 4.748-.036.614-.071 1.239-.106 1.873l-87.732 42.122-83.318 44.667c-2.973-18.281-4.813-37.408-5.46-56.707-.306-9.124-.312-17.696-.03-25.767.047-1.391.104-2.772.17-4.133l171.398-64.405c4.414 15.731 6.172 34.942 5.293 57.602z" fill="#50d8a1"/><g><path d="m238.76 189.55c-.06 1.57-.13 3.15-.21 4.75-.04.58-.08 1.18-.1 1.78 0 .03 0 .06-.01.09l-12.73 6.11-75 36.01v-75.24l82.76-31.1c4.41 15.73 6.17 34.94 5.29 57.6z" fill="#22c48e"/></g><path d="m238.76 189.55c-.06 1.565-.128 3.151-.215 4.748-1.011 18.721-2.72 47.633-6.447 78.645l-170.2-72.456c.867-24.97 4.446-45.034 10.219-61.095z" fill="#72f4c3"/><path d="m238.76 189.55c-.06 1.57-.13 3.15-.21 4.75-.03.58-.06 1.18-.1 1.78 0 .03 0 .06-.01.09-1.02 18.75-2.73 46.78-6.34 76.77l-81.39-34.65v-75.24z" fill="#4be0b5"/></g><g><path d="m273.24 189.55c.06 1.565 26.046 24.118 26.081 24.752 1.02 18.742-19.419 58.64-19.419 58.64 8.254 68.61 7.481 157.737 68.596 159.787 61.115 2.049 83.503-71.988 96.113-149.768 0 0-5.982-62.411-6.264-70.482-.047-1.391 6.983-57.926 1.536-73.087-16.086-44.78-49.174-58.386-87.654-60.054-38.854-1.681-63.431 16.029-73.695 52.611-4.415 15.73-6.173 34.941-5.294 57.601z" fill="#ffe67b"/><path d="m444.61 282.96c-11.69 72.09-31.78 140.97-83.32 149.02v-352c34.57 3.39 63.79 18.19 78.59 59.41 3.4 9.47 1.94 35.09.37 53.32-.41 4.82-.83 9.12-1.18 12.47-.43 4.27-.73 7.01-.72 7.3.28 8.07 6.26 70.48 6.26 70.48z" fill="#ffca45"/><path d="m273.24 189.55c.06 1.565.128 3.151.215 4.748.036.614.071 1.239.106 1.873l87.732 42.122 83.318 44.667c2.973-18.281 4.813-37.408 5.46-56.707.306-9.124.312-17.696.03-25.767-.047-1.391-.104-2.772-.171-4.133l-171.398-64.405c-4.413 15.731-6.171 34.942-5.292 57.602z" fill="#50d8a1"/><path d="m450.07 226.25c-.65 19.3-2.49 38.43-5.46 56.71l-83.32-44.67v-75.24l78.96 29.66 9.67 3.64h.01c.03.52.05 1.05.07 1.59.04.85.07 1.7.1 2.55.28 8.07.28 16.64-.03 25.76z" fill="#22c48e"/><path d="m273.24 189.55c.06 1.565.128 3.151.215 4.748 1.011 18.721 2.72 47.633 6.447 78.645l170.2-72.456c-.867-24.97-4.446-45.034-10.219-61.095z" fill="#72f4c3"/><path d="m450.1 200.49-11.03 4.69-77.78 33.11v-75.24l78.59-23.66c5.46 15.16 8.94 33.9 10.04 56.96.03.53.06 1.06.08 1.59.04.85.07 1.7.1 2.55z" fill="#4be0b5"/></g></g></g></svg>