<svg id="Layer_1" enable-background="new 0 0 512 512" height="512" viewBox="0 0 512 512" width="512" xmlns="http://www.w3.org/2000/svg"><g><g id="XMLID_178_"><g><g id="XMLID_832_"><g id="XMLID_833_"><g id="XMLID_834_"><g id="XMLID_835_"><g id="XMLID_836_"><g id="XMLID_853_"><g id="XMLID_854_"><g id="XMLID_865_"><g id="XMLID_866_"><g id="XMLID_867_"><g id="XMLID_881_"><g id="XMLID_882_"><g id="XMLID_889_"><g id="XMLID_948_"><circle cx="256" cy="256" fill="#5a6c75" r="256"/></g></g></g></g></g></g></g></g></g></g></g></g></g></g></g></g><path d="m512 256c0-21.74-2.72-42.843-7.82-62.998l-145.835-145.835-27.687 77.424c-16.225 4.261-32.326 6.622-44.908 17.408l-98.17-94.833s-30.817 109.498-22.699 189.665l62.618 62.001-85.963 139.499 69.773 69.773c14.513 2.556 29.445 3.896 44.691 3.896 141.385 0 256-114.615 256-256z" fill="#3b4d5b"/><g><path d="m370.463 438.333-20.462-125.76-99.049-10.636-88.954 10.636-20.461 125.76s31.462 11 114.462 11v-.013l.001.013c83 0 114.463-11 114.463-11z" fill="#ff3d7d"/><path d="m370.46 438.33s-31.46 11-114.46 11v-146.85l94 10.09z" fill="#ea1c81"/><path d="m361.405 128.499-3.058-10.148h-.002v-71.184h-33.927v71.184c-23.913 6.279-45.02 20.417-59.927 40.141l-8.491 11.234-8.491-11.233c-14.908-19.724-36.016-33.862-59.929-40.141v-71.185h-33.927v71.184l-3.058 10.148c-9.508 31.553-6.722 65.536 7.8 95.119l6.486 13.214h182.237l6.487-13.214c14.522-29.582 17.308-63.565 7.8-95.119z" fill="#f2f2fc"/><path d="m353.6 223.62-6.48 13.21h-91.12v-67.1l8.49-11.24c14.91-19.72 36.02-33.86 59.93-40.14v-71.18h33.92v71.18h.01l3.05 10.15c9.51 31.55 6.73 65.54-7.8 95.12z" fill="#d8e9fe"/><path d="m161.999 275.957h188.002v36.615h-188.002z" fill="#ffe67b"/><path d="m256 275.96h94v36.61h-94z" fill="#ffca45"/></g></g></svg>