<svg id="Layer_1" enable-background="new 0 0 512 512" height="512" viewBox="0 0 512 512" width="512" xmlns="http://www.w3.org/2000/svg"><g><g id="XMLID_179_"><g id="XMLID_274_"><g id="XMLID_275_"><g id="XMLID_276_"><g id="XMLID_291_"><g id="XMLID_292_"><g id="XMLID_293_"><g id="XMLID_294_"><g id="XMLID_295_"><g id="XMLID_296_"><g id="XMLID_297_"><g id="XMLID_298_"><g id="XMLID_299_"><g id="XMLID_300_"><circle id="XMLID_301_" cx="256" cy="256" fill="#2ebeef" r="256"/></g></g></g></g></g></g></g></g></g></g></g></g></g></g><path d="m512 256c0-18.717-2.027-36.959-5.841-54.534-33.554-33.56-103.717-103.662-103.717-103.662l-122.608 23.363-54.748-53.5-185.388 104.184 89.376 89.373 3.926 63.055-10.76 104.816 76.462 76.462c18.422 4.212 37.599 6.443 57.298 6.443 141.385 0 256-114.615 256-256z" fill="#4793ff"/><g><g><path d="m389.76 221.276v57.827l-10.26 45.176 10.26 45.176v59.64h-267.52v-59.64l10.76-45.176-10.76-45.176v-57.827l-12.235-123.946c3.774-4.005 7.878-7.647 12.235-10.893 16.207-12.103 36.012-18.771 56.532-18.771h13.305s13.837 73.41 63.923 73.41c50.085 0 63.923-73.41 63.923-73.41h13.305c20.52 0 40.325 6.668 56.532 18.771 4.357 3.246 8.461 6.888 12.235 10.893z" fill="#f2f2fc"/><path d="m472.3 171.85-82.54 49.43v57.82l-10.26 45.18 10.26 45.17v59.64h-133.76v-288.01c50.09 0 63.92-73.41 63.92-73.41h13.31c20.52 0 40.32 6.66 56.53 18.77 4.36 3.24 8.46 6.89 12.23 10.89z" fill="#d8e9fe"/><path d="m122.24 86.437v134.838l-82.542-49.424 70.307-74.521c3.774-4.005 7.878-7.647 12.235-10.893z" fill="#ff3d7d"/><path d="m472.302 171.852-82.542 49.424v-134.839c4.357 3.246 8.461 6.888 12.235 10.893z" fill="#ea1c81"/><g><path d="m256 162.657c-35.247 0-63.923-28.676-63.923-63.923v-31.067h33.008v31.068c0 17.046 13.868 30.915 30.914 30.915s30.915-13.868 30.915-30.915v-31.068h33.008v31.068c.001 35.246-28.675 63.922-63.922 63.922z" fill="#ff3d7d"/></g><g><path d="m319.92 67.67v31.06c0 35.25-28.67 63.93-63.92 63.93v-33.01c17.05 0 30.91-13.87 30.91-30.92v-31.06z" fill="#ea1c81"/></g></g><path d="m122.24 279.103h267.52v90.352h-267.52z" fill="#ffe67b"/><path d="m256 279.1h133.76v90.35h-133.76z" fill="#ffca45"/></g></g></svg>