<?xml version="1.0" encoding="iso-8859-1"?>
<!-- Generator: Adobe Illustrator 19.0.0, SVG Export Plug-In . SVG Version: 6.00 Build 0)  -->
<svg version="1.1" id="Capa_1" xmlns="http://www.w3.org/2000/svg" xmlns:xlink="http://www.w3.org/1999/xlink" x="0px" y="0px"
	 viewBox="0 0 512.001 512.001" style="enable-background:new 0 0 512.001 512.001;" xml:space="preserve">
<g>
	<g>
		<path d="M174.112,238.829c-7.08-7.079-16.492-10.977-26.503-10.977s-19.424,3.898-26.503,10.977
			c-14.613,14.614-14.613,38.393,0,53.007c7.079,7.078,16.493,10.977,26.504,10.977s19.424-3.899,26.501-10.977
			c7.08-7.079,10.979-16.492,10.979-26.503C185.091,255.32,181.192,245.908,174.112,238.829z M163.51,281.234
			c-4.247,4.248-9.894,6.587-15.9,6.587c-6.007,0-11.655-2.339-15.904-6.587c-8.767-8.767-8.767-23.035,0.001-31.804
			c4.247-4.247,9.894-6.586,15.902-6.586c6.007,0,11.654,2.339,15.902,6.587c4.248,4.247,6.588,9.895,6.588,15.902
			C170.098,271.339,167.759,276.985,163.51,281.234z"/>
	</g>
</g>
<g>
	<g>
		<path d="M273.057,337.772c-7.079-7.079-16.491-10.977-26.503-10.977s-19.425,3.898-26.504,10.977
			c-14.613,14.615-14.613,38.394,0.001,53.007c7.078,7.079,16.49,10.977,26.502,10.977s19.425-3.899,26.504-10.978
			c7.079-7.078,10.978-16.491,10.978-26.502C284.036,354.264,280.137,344.851,273.057,337.772z M262.455,380.177
			c-4.248,4.248-9.896,6.587-15.903,6.587s-11.654-2.339-15.901-6.587c-8.768-8.767-8.768-23.035,0-31.805
			c4.248-4.247,9.895-6.586,15.902-6.586s11.655,2.339,15.903,6.587c4.246,4.248,6.586,9.895,6.586,15.902
			C269.04,370.282,266.702,375.929,262.455,380.177z"/>
	</g>
</g>
<g>
	<g>
		<path d="M273.054,238.829c-2.927-2.928-7.673-2.928-10.601-0.001L121.106,380.177c-2.927,2.927-2.927,7.674,0,10.601
			c1.463,1.463,3.382,2.196,5.3,2.196c1.918,0,3.837-0.732,5.3-2.196l141.348-141.348
			C275.982,246.502,275.982,241.755,273.054,238.829z"/>
	</g>
</g>
<g>
	<g>
		<path d="M505.77,6.379c-10.121-10.121-29.682-7.938-56.566,6.319c-23.217,12.313-49.81,32.651-72.961,55.802
			c-9.009,9.01-17.393,18.317-24.98,27.709L246.084,83.594c-1.389-0.17-2.859-0.26-4.378-0.26c-6.097,0.02-12.773,1.349-19.28,3.868
			c-6.757,2.649-12.314,6.107-16.512,10.285l-93.862,93.852c-2.919,2.928-2.919,7.676,0,10.605c1.419,1.409,3.298,2.189,5.307,2.189
			c1.999,0,3.878-0.78,5.297-2.189l93.852-93.862c2.529-2.559,6.776-5.137,11.354-6.906c4.558-1.779,9.705-2.849,13.763-2.849h0.08
			c0.919,0,1.789,0.05,2.589,0.15l136.999,16.432c3.508,0.4,7.366,2.409,10.305,5.377c2.968,2.938,4.977,6.797,5.377,10.305
			l2.815,23.466c-11.471,8.756-22.766,15.998-33.308,21.269c-1.948,0.974-3.991,1.924-6.076,2.821
			c-1.615-6.469-4.956-12.403-9.793-17.239c-7.03-7.03-16.378-10.902-26.32-10.902c-9.943,0-19.29,3.872-26.322,10.902
			c-14.513,14.514-14.513,38.129,0.001,52.642c7.03,7.03,16.379,10.902,26.321,10.902s19.291-3.872,26.32-10.902
			c5.364-5.364,8.883-12.079,10.253-19.376c3.8-1.437,7.893-3.225,12.32-5.438c9.165-4.583,18.828-10.534,28.655-17.569
			l11.565,96.424c0.1,0.8,0.15,1.669,0.15,2.589c0.01,4.078-1.049,9.255-2.849,13.843c-1.769,4.578-4.348,8.815-6.906,11.354
			L205.914,493.252c-2.339,2.339-5.477,3.628-8.835,3.638c-3.358-0.01-6.497-1.299-8.835-3.638L18.63,323.64
			c-2.339-2.339-3.628-5.477-3.638-8.835c0.01-3.358,1.299-6.497,3.638-8.835l82.817-82.827c2.928-2.919,2.928-7.677,0-10.596
			c-1.409-1.419-3.298-2.199-5.297-2.199s-3.878,0.78-5.297,2.199L8.026,295.363c-2.609,2.619-4.638,5.677-6.027,9.095
			C0.67,307.767,0,311.245,0,314.803s0.67,7.036,1.999,10.335c1.389,3.428,3.418,6.487,6.027,9.095l169.623,169.623
			c2.609,2.609,5.657,4.638,9.075,6.017c3.298,1.329,6.777,2.009,10.325,2.009h0.06c3.558,0,7.026-0.68,10.325-2.009
			c3.418-1.379,6.477-3.408,9.085-6.017l197.878-197.888c4.178-4.198,7.636-9.755,10.275-16.511
			c2.519-6.517,3.858-13.183,3.878-19.28c0-1.509-0.09-2.979-0.26-4.378l-12.614-105.177c9.316-7.53,18.643-15.918,27.709-24.983
			c23.197-23.197,43.581-49.733,55.922-72.804C513.651,36.018,515.887,16.496,505.77,6.379z M319.705,192.18
			c3.673,3.673,9.48,6.828,18.595,6.828c1.568,0,3.236-0.095,5.007-0.295c-0.921,1.517-2.008,2.946-3.295,4.234
			c-4.198,4.199-9.781,6.512-15.719,6.512c-5.938,0-11.521-2.313-15.721-6.512c-8.668-8.668-8.668-22.771,0-31.439
			c4.2-4.2,9.783-6.512,15.721-6.512c5.938,0,11.52,2.313,15.72,6.511c3.179,3.18,5.272,7.154,6.103,11.474
			c-6.867,1.574-12.837,1.572-15.811-1.401c-2.927-2.928-7.674-2.927-10.601,0C316.778,184.507,316.778,189.253,319.705,192.18z
			 M486.086,55.764c-11.677,21.827-31.105,47.077-53.304,69.275c-6.327,6.327-12.772,12.291-19.235,17.845l-1.689-14.085
			c-0.87-7.036-4.208-13.653-9.655-19.12c-5.467-5.447-12.084-8.785-19.12-9.655l-14.081-1.688
			c5.584-6.505,11.55-12.943,17.842-19.236c52.865-52.865,100.177-70.266,108.324-62.12
			C498.952,20.763,497.611,34.222,486.086,55.764z"/>
	</g>
</g>
<g>
</g>
<g>
</g>
<g>
</g>
<g>
</g>
<g>
</g>
<g>
</g>
<g>
</g>
<g>
</g>
<g>
</g>
<g>
</g>
<g>
</g>
<g>
</g>
<g>
</g>
<g>
</g>
<g>
</g>
</svg>
